<svg width="48" height="48" viewBox="0 0 48 48" fill="none" xmlns="http://www.w3.org/2000/svg">
<path d="M24.0005 14C22.061 14.0037 20.1644 14.5713 18.5418 15.6337C16.9191 16.6962 15.6404 18.2075 14.8615 19.9838C14.0825 21.76 13.8369 23.7244 14.1546 25.6378C14.4722 27.5511 15.3394 29.3308 16.6505 30.76C17.587 31.775 18.7235 32.5851 19.9885 33.1392C21.2535 33.6933 22.6195 33.9793 24.0005 33.9793C25.3816 33.9793 26.7476 33.6933 28.0126 33.1392C29.2776 32.5851 30.4141 31.775 31.3505 30.76C32.6617 29.3308 33.5289 27.5511 33.8465 25.6378C34.1642 23.7244 33.9186 21.76 33.1396 19.9838C32.3606 18.2075 31.082 16.6962 29.4593 15.6337C27.8367 14.5713 25.9401 14.0037 24.0005 14ZM24.0005 32C21.929 31.9969 19.9395 31.1903 18.4505 29.75C18.9026 28.6495 19.6716 27.7083 20.6598 27.0459C21.648 26.3835 22.8108 26.0298 24.0005 26.0298C25.1902 26.0298 26.3531 26.3835 27.3413 27.0459C28.3295 27.7083 29.0985 28.6495 29.5505 29.75C28.0616 31.1903 26.0721 31.9969 24.0005 32ZM22.0005 22C22.0005 21.6044 22.1178 21.2178 22.3376 20.8889C22.5574 20.56 22.8697 20.3036 23.2352 20.1522C23.6006 20.0009 24.0028 19.9613 24.3907 20.0384C24.7787 20.1156 25.135 20.3061 25.4148 20.5858C25.6945 20.8655 25.8849 21.2219 25.9621 21.6098C26.0393 21.9978 25.9997 22.3999 25.8483 22.7654C25.6969 23.1308 25.4406 23.4432 25.1117 23.6629C24.7828 23.8827 24.3961 24 24.0005 24C23.4701 24 22.9614 23.7893 22.5863 23.4142C22.2113 23.0391 22.0005 22.5304 22.0005 22ZM30.9105 28C30.0171 26.4718 28.6419 25.283 27.0005 24.62C27.5097 24.0427 27.8415 23.3307 27.956 22.5694C28.0705 21.8082 27.963 21.0301 27.6463 20.3285C27.3296 19.6269 26.8171 19.0316 26.1704 18.614C25.5238 18.1964 24.7703 17.9742 24.0005 17.9742C23.2307 17.9742 22.4773 18.1964 21.8306 18.614C21.184 19.0316 20.6715 19.6269 20.3548 20.3285C20.0381 21.0301 19.9305 21.8082 20.0451 22.5694C20.1596 23.3307 20.4914 24.0427 21.0005 24.62C19.3591 25.283 17.984 26.4718 17.0905 28C16.3785 26.7871 16.0023 25.4065 16.0005 24C16.0005 21.8783 16.8434 19.8434 18.3437 18.3431C19.844 16.8429 21.8788 16 24.0005 16C26.1223 16 28.1571 16.8429 29.6574 18.3431C31.1577 19.8434 32.0005 21.8783 32.0005 24C31.9988 25.4065 31.6226 26.7871 30.9105 28Z" fill="#838688"/>
</svg>
